<svg xmlns="http://www.w3.org/2000/svg" viewBox="0 0 22.47 15.72"><defs><style>.cls-1{fill:#fff;}.cls-2{fill:#42101d;fill-rule:evenodd;}</style></defs><title>icon_footer_youtube</title><g id="Camada_2" data-name="Camada 2"><g id="Layer_1" data-name="Layer 1"><path class="cls-1" d="M19.42,15.55s-6.14.17-8.18.17-8.19-.17-8.19-.17A2.89,2.89,0,0,1,.17,12.67S0,9.07,0,7.86.17,3.05.17,3.05A2.89,2.89,0,0,1,3.05.17S9.19,0,11.24,0s8.18.17,8.18.17A2.89,2.89,0,0,1,22.3,3.05s.17,3.61.17,4.81-.17,4.81-.17,4.81A2.89,2.89,0,0,1,19.42,15.55Z"/><polygon class="cls-2" points="9.08 11.38 9.08 4.35 14.76 7.86 9.08 11.38"/></g></g></svg>