<svg xmlns="http://www.w3.org/2000/svg" viewBox="0 0 35.53 35.53"><defs><style>.cls-1{fill:#fff;}</style></defs><title>icon_footer2</title><g id="Camada_2" data-name="Camada 2"><g id="Layer_1" data-name="Layer 1"><path class="cls-1" d="M18,35.53H17.5a3.22,3.22,0,0,1-3.22-3.21,1.52,1.52,0,0,0-1-1.45,13.92,13.92,0,0,1-1.56-.65,1.52,1.52,0,0,0-1.75.3,3.23,3.23,0,0,1-4.56,0L5,30.14a3.23,3.23,0,0,1,0-4.55,1.51,1.51,0,0,0,.3-1.75,13.32,13.32,0,0,1-.65-1.57,1.52,1.52,0,0,0-1.44-1A3.22,3.22,0,0,1,0,18V17.5a3.22,3.22,0,0,1,3.22-3.22,1.52,1.52,0,0,0,1.44-1,13.18,13.18,0,0,1,.65-1.56A1.54,1.54,0,0,0,5,10H5a3.2,3.2,0,0,1-.94-2.28A3.16,3.16,0,0,1,5,5.4L5.39,5A3.24,3.24,0,0,1,10,5a1.49,1.49,0,0,0,1.74.3,13.32,13.32,0,0,1,1.57-.65,1.52,1.52,0,0,0,1-1.44A3.22,3.22,0,0,1,17.5,0H18a3.22,3.22,0,0,1,3.21,3.22,1.52,1.52,0,0,0,1,1.44,13.32,13.32,0,0,1,1.57.65A1.51,1.51,0,0,0,25.58,5a3.23,3.23,0,0,1,4.56,0l.38.39a3.16,3.16,0,0,1,.94,2.27A3.2,3.2,0,0,1,30.52,10l0,0a1.52,1.52,0,0,0-.27,1.72,14.06,14.06,0,0,1,.65,1.57,1.52,1.52,0,0,0,1.44,1,3.22,3.22,0,0,1,3.22,3.22V18a3.22,3.22,0,0,1-3.22,3.21,1.52,1.52,0,0,0-1.44,1,13.32,13.32,0,0,1-.65,1.57,1.51,1.51,0,0,0,.3,1.74,3.24,3.24,0,0,1,0,4.56l-.38.38a3.22,3.22,0,0,1-4.55,0,1.53,1.53,0,0,0-1.75-.3,14.06,14.06,0,0,1-1.57.65,1.52,1.52,0,0,0-1,1.44A3.22,3.22,0,0,1,18,35.53Zm-7-7.14a3.19,3.19,0,0,1,1.41.32,12.4,12.4,0,0,0,1.37.57,3.21,3.21,0,0,1,2.15,3,1.54,1.54,0,0,0,1.54,1.54H18a1.54,1.54,0,0,0,1.53-1.53,3.21,3.21,0,0,1,2.15-3,12.55,12.55,0,0,0,1.38-.57,3.2,3.2,0,0,1,3.67.62,1.55,1.55,0,0,0,2.18,0l.38-.38a1.53,1.53,0,0,0,0-2.17,3.22,3.22,0,0,1-.62-3.68,12.55,12.55,0,0,0,.57-1.38,3.22,3.22,0,0,1,3-2.15A1.54,1.54,0,0,0,33.85,18V17.5A1.54,1.54,0,0,0,32.31,16a3.21,3.21,0,0,1-3-2.15,11.65,11.65,0,0,0-.57-1.37,3.22,3.22,0,0,1,.62-3.68l0,0a1.51,1.51,0,0,0,.43-1.06,1.55,1.55,0,0,0-.45-1.09L29,6.2a1.53,1.53,0,0,0-2.17,0,3.2,3.2,0,0,1-3.68.62,11.79,11.79,0,0,0-1.38-.57,3.19,3.19,0,0,1-2.15-3A1.54,1.54,0,0,0,18,1.68H17.5A1.54,1.54,0,0,0,16,3.22a3.19,3.19,0,0,1-2.15,3,11.79,11.79,0,0,0-1.38.57,3.2,3.2,0,0,1-3.67-.61,1.57,1.57,0,0,0-2.18,0l-.38.38a1.55,1.55,0,0,0-.45,1.09,1.58,1.58,0,0,0,.43,1.07l0,0a3.21,3.21,0,0,1,.61,3.68,11.65,11.65,0,0,0-.57,1.37,3.2,3.2,0,0,1-3,2.15A1.54,1.54,0,0,0,1.68,17.5V18a1.54,1.54,0,0,0,1.54,1.53,3.21,3.21,0,0,1,3,2.15,12.55,12.55,0,0,0,.57,1.38,3.18,3.18,0,0,1-.62,3.67A1.55,1.55,0,0,0,6.2,29l.38.38a1.55,1.55,0,0,0,2.18,0A3.19,3.19,0,0,1,11,28.39Zm6.74-4.23a6.4,6.4,0,1,1,6.39-6.39A6.4,6.4,0,0,1,17.77,24.16Zm0-11.11a4.72,4.72,0,1,0,4.71,4.72A4.73,4.73,0,0,0,17.77,13.05Z"/></g></g></svg>