<svg xmlns="http://www.w3.org/2000/svg" viewBox="0 0 32.49 36.24"><defs><style>.cls-1{fill:#fff;}</style></defs><title>icon_footer1</title><g id="Camada_2" data-name="Camada 2"><g id="Layer_1" data-name="Layer 1"><path class="cls-1" d="M27.28,0H12.07A5.22,5.22,0,0,0,6.86,5.21v8.12H4a4,4,0,0,0-3.95,4v15a4,4,0,0,0,4,4h12.5a4,4,0,0,0,3.95-4V28.11h6.88a5.22,5.22,0,0,0,5.21-5.21V5.21A5.22,5.22,0,0,0,27.28,0ZM19,28.73H3.27v1.46H19v1.59H3.27v1.45H18.76a2.51,2.51,0,0,1-2.31,1.56H4a2.5,2.5,0,0,1-2.5-2.5v-15A2.5,2.5,0,0,1,4,14.78H6.86v1.78H3.27V18H6.86V19.6H3.27v1.45H6.86v1.59H3.27V24.1H7a5.24,5.24,0,0,0,.68,1.59H3.27v1.45H9.06a5.15,5.15,0,0,0,3,1H19ZM31,22.9a3.75,3.75,0,0,1-3.75,3.75H12.07A3.75,3.75,0,0,1,8.32,22.9V5.21a3.76,3.76,0,0,1,3.75-3.76H27.28A3.76,3.76,0,0,1,31,5.21Z"/><rect class="cls-1" x="11.33" y="5.3" width="16.68" height="1.45"/><rect class="cls-1" x="11.33" y="8.41" width="16.68" height="1.45"/><rect class="cls-1" x="11.33" y="11.52" width="16.68" height="1.45"/><rect class="cls-1" x="11.33" y="14.64" width="16.68" height="1.45"/><rect class="cls-1" x="11.33" y="17.75" width="16.68" height="1.45"/><rect class="cls-1" x="11.33" y="20.87" width="16.68" height="1.45"/></g></g></svg>