<svg xmlns="http://www.w3.org/2000/svg" viewBox="0 0 36.51 33.74"><defs><style>.cls-1{fill:#fff;}</style></defs><title>icon_footer3</title><g id="Camada_2" data-name="Camada 2"><g id="Layer_1" data-name="Layer 1"><path class="cls-1" d="M36.51,33.74H0v-.58a18.26,18.26,0,1,1,36.51,0ZM1.18,32.57H35.33a17.09,17.09,0,0,0-34.15,0Z"/><path class="cls-1" d="M18.25,13.16a6.58,6.58,0,1,1,6.58-6.58A6.59,6.59,0,0,1,18.25,13.16Zm0-12a5.41,5.41,0,1,0,5.41,5.41A5.42,5.42,0,0,0,18.25,1.17Z"/><polygon class="cls-1" points="18.51 18.88 14.96 16.25 15.66 15.31 18.45 17.38 20.81 15.34 21.58 16.22 18.51 18.88"/><polygon class="cls-1" points="17.6 33.56 13.82 29.55 16.18 16.85 17.33 17.06 15.08 29.18 18.45 32.76 17.6 33.56"/><polygon class="cls-1" points="18.43 33.58 17.63 32.73 21.16 29.39 19.17 17.05 20.33 16.86 22.42 29.81 18.43 33.58"/></g></g></svg>