<svg xmlns="http://www.w3.org/2000/svg" viewBox="0 0 17.02 16.71"><defs><style>.cls-1{fill:#fff;}</style></defs><title>icon_footer_instagram</title><g id="Camada_2" data-name="Camada 2"><g id="Layer_1" data-name="Layer 1"><path class="cls-1" d="M15.32,0H1.7A1.69,1.69,0,0,0,0,1.67V15a1.69,1.69,0,0,0,1.7,1.67H15.32A1.69,1.69,0,0,0,17,15V1.67A1.69,1.69,0,0,0,15.32,0ZM8.51,5a3.35,3.35,0,1,1-3.4,3.35A3.39,3.39,0,0,1,8.51,5ZM2.13,15a.4.4,0,0,1-.43-.42V7.52H3.49a2.68,2.68,0,0,0-.09.84,5.11,5.11,0,0,0,10.22,0,2.68,2.68,0,0,0-.09-.84h1.79v7.1a.4.4,0,0,1-.43.42ZM15.32,3.76a.4.4,0,0,1-.43.42h-1.7a.41.41,0,0,1-.43-.42V2.09a.41.41,0,0,1,.43-.42h1.7a.4.4,0,0,1,.43.42Z"/></g></g></svg>