<svg xmlns="http://www.w3.org/2000/svg" viewBox="0 0 35.44 35.53"><defs><style>.cls-1{fill:#fff;}</style></defs><title>icon_footer4</title><g id="Camada_2" data-name="Camada 2"><g id="Layer_1" data-name="Layer 1"><path class="cls-1" d="M35.24,15.65l-4.49-4.1.08-9.67a.59.59,0,0,0-.59-.6l-6.5-.05a.59.59,0,0,0-.59.58l0,2.8L18.24.15a.6.6,0,0,0-.79,0L.2,15.37A.59.59,0,0,0,0,16a.57.57,0,0,0,.55.38l2.36,0L2.82,32.37a3,3,0,0,0,2.93,3l5.91,0,11.81.09,5.91.05a3,3,0,0,0,3-2.93l.13-15.94h2.36a.58.58,0,0,0,.4-1ZM24.32,2.41l5.32,0-.06,8L24.3,5.67ZM17,34.25l-4.72,0,0-4.13,4.73,0ZM17,28.94l-4.73,0,0-4.73,4.72,0Zm0-5.91-4.72,0,0-4.13,4.73,0ZM22.89,34.3l-4.73,0,0-4.13,4.72,0Zm0-5.32-4.72,0,0-4.73,4.73,0Zm.05-5.9-4.73,0,0-4.13,4.72,0Zm8.92-7.61a.6.6,0,0,0-.6.59l-.13,16.53a1.77,1.77,0,0,1-1.78,1.76l-5.32,0,.13-16a.59.59,0,0,0-.59-.59l-11.81-.1a.6.6,0,0,0-.6.59l-.12,16-5.32-.05A1.77,1.77,0,0,1,4,32.38l.13-16.54a.58.58,0,0,0-.58-.6H2.14L17.84,1.38l15.47,14.1Z"/><rect class="cls-1" x="20.59" y="26.02" width="1.18" height="1.18" transform="translate(-5.59 47.58) rotate(-89.55)"/><rect class="cls-1" x="14.78" y="14.16" width="1.18" height="1.18" transform="translate(0.5 30) rotate(-89.55)"/><rect class="cls-1" x="17.14" y="14.18" width="1.18" height="1.18" transform="translate(2.82 32.38) rotate(-89.54)"/><rect class="cls-1" x="19.5" y="14.19" width="1.18" height="1.18" transform="matrix(0.01, -1, 1, 0.01, 5.15, 34.76)"/></g></g></svg>